<svg xmlns="http://www.w3.org/2000/svg" width="512" height="512" viewBox="0 0 512 512">
  <rect width="512" height="512" rx="64" fill="#1a1a2e"/>
  <path d="M256 96c-88.4 0-160 71.6-160 160s71.6 160 160 160 160-71.6 160-160S344.4 96 256 96zm0 280c-66.3 0-120-53.7-120-120s53.7-120 120-120 120 53.7 120 120-53.7 120-120 120z" fill="#22c55e"/>
  <circle cx="256" cy="256" r="60" fill="#22c55e"/>
  <path d="M200 180l30 30m52 92l30 30M312 180l-30 30m-52 92l-30 30" stroke="#22c55e" stroke-width="12" stroke-linecap="round"/>
</svg>
